<?xml version="1.0" encoding="UTF-8"?>
<svg width="48px" height="48px" viewBox="0 0 48 48" version="1.1" xmlns="http://www.w3.org/2000/svg" xmlns:xlink="http://www.w3.org/1999/xlink">
    <!-- Generator: Sketch 55.2 (78181) - https://sketchapp.com -->
    <title>LOGO-AZURE</title>
    <desc>Created with Sketch.</desc>
    <g id="Candid" stroke="none" stroke-width="1" fill="none" fill-rule="evenodd">
        <g id="Group-2" transform="translate(0.000000, -112.000000)">
            <g id="LOGO-AZURE" transform="translate(0.000000, 112.000000)">
                <circle id="Oval" stroke="#E5E5E5" fill="#FFFFFF" cx="24" cy="24" r="23.5"></circle>
                <g id="2018-logo-Microsoft-Azure" transform="translate(10.000000, 12.000000)" fill="#0089D6" fill-rule="nonzero">
                    <g id="logo" transform="translate(0.172767, 0.183543)">
                        <path d="M12.4367805,19.7107114 C15.8903415,19.1001748 18.7429268,18.5954919 18.7757073,18.5886626 L18.8358049,18.575687 L15.5748293,14.6973456 C13.7814634,12.5638822 12.3138537,10.8101261 12.3138537,10.8005651 C12.3138537,10.7814431 15.6806829,1.50934557 15.6998049,1.47586042 C15.7059512,1.46516021 17.9978537,5.42115045 21.2540488,11.0655407 C24.3033171,16.3500285 26.8171707,20.7071017 26.8403902,20.7480773 L26.8827317,20.8225163 L16.52,20.8211505 L6.15726829,20.8197846 L12.4367805,19.7107114 Z M0,18.5278822 C0,18.5224187 1.53644878,15.8549065 3.41436098,12.6007602 L6.82858537,6.68319923 L10.808,3.34436996 C12.9960976,1.50777484 14.792878,0.00287728076 14.7997073,7.07987827e-05 C14.8072195,-0.00258613388 14.7785366,0.0698724027 14.7355122,0.16117972 C14.6931707,0.252487037 12.748878,4.42277972 10.4153171,9.42849679 L6.17160976,18.5298626 L3.08580488,18.5339602 C1.38859512,18.536009 0,18.5332773 0,18.5278139 L0,18.5278822 Z" id="path21"></path>
                    </g>
                </g>
            </g>
        </g>
    </g>
</svg>