<?xml version="1.0" encoding="UTF-8"?>
<svg width="48px" height="48px" viewBox="0 0 48 48" version="1.1" xmlns="http://www.w3.org/2000/svg" xmlns:xlink="http://www.w3.org/1999/xlink">
    <!-- Generator: Sketch 55.2 (78181) - https://sketchapp.com -->
    <title>LOGO-GOOGLE-SSO</title>
    <desc>Created with Sketch.</desc>
    <g id="Candid" stroke="none" stroke-width="1" fill="none" fill-rule="evenodd">
        <g id="Group-2" transform="translate(-291.000000, -168.000000)">
            <g id="LOGO-GOOGLE-SSO" transform="translate(291.000000, 168.000000)">
                <circle id="Oval" stroke="#E5E5E5" fill="#FFFFFF" cx="24" cy="24" r="23.5"></circle>
                <g id="logo_googleg_48dp" transform="translate(10.000000, 10.000000)">
                    <path d="M27.44,14.3181818 C27.44,13.3254545 27.3509091,12.3709091 27.1854545,11.4545455 L14,11.4545455 L14,16.87 L21.5345455,16.87 C21.21,18.62 20.2236364,20.1027273 18.7409091,21.0954545 L18.7409091,24.6081818 L23.2654545,24.6081818 C25.9127273,22.1709091 27.44,18.5818182 27.44,14.3181818 L27.44,14.3181818 Z" id="Shape" fill="#4285F4"></path>
                    <path d="M14,28 C17.78,28 20.9490909,26.7463636 23.2654545,24.6081818 L18.7409091,21.0954545 C17.4872727,21.9354545 15.8836364,22.4318182 14,22.4318182 C10.3536364,22.4318182 7.26727273,19.9690909 6.16636364,16.66 L1.48909091,16.66 L1.48909091,20.2872727 C3.79272727,24.8627273 8.52727273,28 14,28 L14,28 Z" id="Shape" fill="#34A853"></path>
                    <path d="M6.16636364,16.66 C5.88636364,15.82 5.72727273,14.9227273 5.72727273,14 C5.72727273,13.0772727 5.88636364,12.18 6.16636364,11.34 L6.16636364,7.71272727 L1.48909091,7.71272727 C0.540909091,9.60272727 0,11.7409091 0,14 C0,16.2590909 0.540909091,18.3972727 1.48909091,20.2872727 L6.16636364,16.66 L6.16636364,16.66 Z" id="Shape" fill="#FBBC05"></path>
                    <path d="M14,5.56818182 C16.0554545,5.56818182 17.9009091,6.27454545 19.3518182,7.66181818 L23.3672727,3.64636364 C20.9427273,1.38727273 17.7736364,0 14,0 C8.52727273,0 3.79272727,3.13727273 1.48909091,7.71272727 L6.16636364,11.34 C7.26727273,8.03090909 10.3536364,5.56818182 14,5.56818182 L14,5.56818182 Z" id="Shape" fill="#EA4335"></path>
                </g>
            </g>
        </g>
    </g>
</svg>