<?xml version="1.0" encoding="UTF-8"?>
<svg width="48px" height="48px" viewBox="0 0 48 48" version="1.1" xmlns="http://www.w3.org/2000/svg" xmlns:xlink="http://www.w3.org/1999/xlink">
    <!-- Generator: Sketch 55.2 (78181) - https://sketchapp.com -->
    <title>LOGO-KEYSTONE</title>
    <desc>Created with Sketch.</desc>
    <g id="Candid" stroke="none" stroke-width="1" fill="none" fill-rule="evenodd">
        <g id="Group-2" transform="translate(0.000000, -168.000000)">
            <g id="LOGO-KEYSTONE" transform="translate(0.000000, 168.000000)">
                <circle id="Oval" stroke="#E5E5E5" fill="#FFFFFF" cx="24" cy="24" r="23.5"></circle>
                <g id="openstack-keystone_new" transform="translate(10.000000, 10.000000)" fill-rule="nonzero">
                    <path d="M14,0 C6.2680135,0 0,6.2680135 0,14 C0,21.7319865 6.2680135,28 14,28 C17.7130309,28 21.2739856,26.5250042 23.8994949,23.8994949 C26.5250042,21.2739856 28,17.7130309 28,14 C28,6.2680135 21.7319865,0 14,0 Z" id="path6455" fill="#ED1843"></path>
                    <path d="M7.35091146,5.83333333 C6.51609438,5.83333333 5.83333333,6.51624021 5.83333333,7.35091146 L5.83333333,9.33333333 L5.83333333,11.0833333 L5.83333333,12.25 L5.83333333,15.75 L5.83333333,16.9166667 L5.83333333,18.6666667 L5.83333333,20.6490885 C5.83333333,21.4837598 6.51623438,22.1666667 7.35091146,22.1666667 L20.6490885,22.1666667 C21.4839056,22.1666667 22.1666667,21.4837598 22.1666667,20.6490885 L22.1666667,18.6666667 L22.1666667,16.9166667 L22.1666667,15.75 L22.1666667,12.25 L22.1666667,11.0833333 L22.1666667,9.33333333 L22.1666667,7.35091146 C22.1666667,6.51624021 21.4837685,5.83333333 20.6490885,5.83333333 L7.35091146,5.83333333 Z M14,9.33333333 C15.6108298,9.33333333 16.9166667,10.6391702 16.9166667,12.25 C16.9151818,13.4083749 16.2283358,14.4560835 15.1666667,14.9194337 L15.1666667,18.6666667 L12.8333333,18.6666667 L12.8333333,14.9217122 C11.7709071,14.4580306 11.0839133,13.4092022 11.0833333,12.25 C11.0833333,10.6391702 12.3891702,9.33333333 14,9.33333333 Z" id="path38" fill="#FFFFFF"></path>
                </g>
            </g>
        </g>
    </g>
</svg>