<?xml version="1.0" encoding="UTF-8"?>
<svg width="48px" height="48px" viewBox="0 0 48 48" version="1.1" xmlns="http://www.w3.org/2000/svg" xmlns:xlink="http://www.w3.org/1999/xlink">
    <!-- Generator: Sketch 55.2 (78181) - https://sketchapp.com -->
    <title>LOGO-AGENT AUTH</title>
    <desc>Created with Sketch.</desc>
    <g id="Candid" stroke="none" stroke-width="1" fill="none" fill-rule="evenodd">
        <g id="Group-2" transform="translate(0.000000, -56.000000)" fill-rule="nonzero">
            <g id="LOGO-AGENT-AUTH" transform="translate(0.000000, 56.000000)">
                <g id="a-link" transform="translate(0.000000, 8.500000)" fill="#DCDCDC">
                    <path d="M5.667,0.01 L24.2055,23.499 L9.8215,34.8665 C3.8665,30.499 -2.74462511e-05,23.451 -2.74462511e-05,15.5 C-0.00859137448,9.8278494 2.00006109,4.33746177 5.667,0.01 L5.667,0.01 Z" id="a"></path>
                </g>
                <g id="b-link" transform="translate(24.000000, 14.500000)" fill="#E1E1E1">
                    <path d="M22.1225,0.1785 C23.3657017,3.12875321 24.004142,6.29851171 24.00002,9.5 C24.00002,18.8665 18.635,26.98 10.81,30.9335 L0.205,17.4985 L22.122,0.1785 L22.1225,0.1785 Z" id="b"></path>
                </g>
                <g id="c-link" transform="translate(9.500000, 31.500000)" fill="#D9D9D9">
                    <path d="M0.3215,11.8665 L14.7055,0.499 L25.3095,13.934 C21.9579224,15.6265671 18.2547069,16.5056504 14.5,16.5000311 C9.40045496,16.5082218 4.43206242,14.8845629 0.3215,11.8665 L0.3215,11.8665 Z" id="c"></path>
                </g>
                <g id="d-link" transform="translate(5.500000, 0.000000)" fill="#E6E6E6">
                    <path d="M40.6225,14.6785 L18.7055,31.9985 L0.167,8.5105 C4.57,3.305 11.149,0 18.5,0 C28.449,0 36.984,6.0535 40.6225,14.6785 Z" id="d"></path>
                </g>
                <path d="M28.361,31.553 C28.1229988,30.9229969 27.8990011,30.303503 27.689,29.6945 C27.478999,29.085497 27.2620011,28.4660032 27.038,27.836 L20.444,27.836 L19.121,31.553 L17,31.553 C17.5600028,30.0129923 18.0849976,28.5885065 18.575,27.2795 C19.0650025,25.9704935 19.5444977,24.7280059 20.0135,23.552 C20.4825023,22.3759941 20.9479977,21.2525054 21.41,20.1815 C21.8720023,19.1104946 22.3549975,18.0500053 22.859,17 L24.728,17 C25.2320025,18.0500053 25.7149977,19.1104946 26.177,20.1815 C26.6390023,21.2525054 27.1044977,22.3759941 27.5735,23.552 C28.0425023,24.7280059 28.5219976,25.9704935 29.012,27.2795 C29.5020024,28.5885065 30.0269972,30.0129923 30.587,31.553 L28.361,31.553 Z M26.45,26.156 C26.0019978,24.9379939 25.5575022,23.7585057 25.1165,22.6175 C24.6754978,21.4764943 24.2170024,20.3810053 23.741,19.331 C23.2509976,20.3810053 22.7855022,21.4764943 22.3445,22.6175 C21.9034978,23.7585057 21.4660022,24.9379939 21.032,26.156 L26.45,26.156 Z" id="A" fill="#111111"></path>
            </g>
        </g>
    </g>
</svg>